<?xml version="1.0" encoding="UTF-8"?>
<svg version="1.1" xmlns="http://www.w3.org/2000/svg" width="280" height="396">
<path d="M0 0 C1.3645778 0.00119879 2.72915644 0.00164349 4.09373474 0.00138855 C6.93502075 0.00293794 9.77617804 0.01109911 12.61743164 0.0246582 C16.19178194 0.04153408 19.76599158 0.04539218 23.34037685 0.04483318 C36.63780643 0.04538986 49.9077849 0.13709732 63.18865967 0.87750244 C72.02140407 1.35919975 80.84041383 1.34171431 89.68359375 1.29296875 C91.32226421 1.28792769 92.96093622 1.28336953 94.59960938 1.27929688 C98.52347776 1.2685342 102.44726712 1.2514242 106.37109375 1.23046875 C104.69140625 5.07421875 104.69140625 5.07421875 101.80859375 6.48046875 C93.19161381 10.8672949 87.71891957 17.21817814 84.37109375 26.23046875 C81.12423351 36.24012629 81.30058734 47.10156474 81.31640625 57.51953125 C81.31717163 58.39782089 81.31793701 59.27611053 81.31872559 60.18101501 C81.33973812 67.38318215 81.51482975 74.57488948 81.72753906 81.7734375 C82.39543944 104.57503474 82.54132201 127.38456587 82.60327148 150.19454956 C82.61348528 153.84136892 82.63073642 157.48804075 82.65454102 161.13479614 C82.93468034 206.04877571 82.01315087 255.72285618 49.90625 290.93359375 C47.76890672 293.08160596 45.58576391 295.16284913 43.37109375 297.23046875 C42.58734375 298.07609375 41.80359375 298.92171875 40.99609375 299.79296875 C29.51754271 310.45162328 15.19988926 317.48062019 0.37109375 322.23046875 C-0.43328125 322.50503906 -1.23765625 322.77960938 -2.06640625 323.0625 C-12.57885952 326.48241669 -23.63313287 327.60213884 -34.62890625 328.23046875 C-35.46292969 328.28460938 -36.29695313 328.33875 -37.15625 328.39453125 C-58.91810339 329.1322212 -82.30552335 322.2464218 -98.44140625 307.41796875 C-114.12688691 292.41668398 -123.27290969 274.25125686 -124.15063477 252.4375 C-124.37791962 237.34687478 -121.40688576 223.49046881 -110.62890625 212.23046875 C-106.20631579 208.5092908 -102.3790002 206.13678829 -96.62890625 205.23046875 C-97.62890625 208.23046875 -97.62890625 208.23046875 -100.87890625 210.35546875 C-107.56065476 214.95601691 -110.26952961 222.57555896 -112.12109375 230.2265625 C-114.9271914 246.82570939 -110.13455569 263.11757831 -100.81640625 276.9140625 C-88.84260229 292.7745246 -71.66568352 300.49487055 -52.62890625 304.23046875 C-51.69046875 304.42125 -50.75203125 304.61203125 -49.78515625 304.80859375 C-36.05911169 306.64326307 -22.74213122 305.52720573 -9.62890625 301.23046875 C-8.23285156 300.77994141 -8.23285156 300.77994141 -6.80859375 300.3203125 C11.13288232 293.82426082 23.25143131 280.75739658 31.68359375 264.10546875 C42.57808076 238.93648767 40.64555644 209.35439377 40.50801849 182.54466152 C40.48776902 178.05772644 40.48097895 173.57077225 40.47314453 169.08380127 C40.45113263 157.71597814 40.41204137 146.34823706 40.37109375 134.98046875 C40.32684766 122.68608956 40.28575387 110.39174405 40.26425743 98.09730077 C40.25439671 92.78899833 40.23484009 87.48085393 40.20739746 82.17261457 C40.19231083 78.85473783 40.1858144 75.53688158 40.18146515 72.21897507 C40.17777249 70.70060574 40.17067702 69.1822395 40.1595993 67.6639061 C40.10381131 59.75828605 40.35801361 51.98452854 41.24658203 44.12335205 C41.32272169 43.43480094 41.39886135 42.74624982 41.47730827 42.03683352 C42.87798234 30.83540909 47.59333876 22.06154428 54.37109375 13.23046875 C53.17347412 13.36976807 51.97585449 13.50906738 50.74194336 13.65258789 C34.61171594 15.41660307 18.55799798 15.60183642 2.3449707 15.68676758 C-20.87484824 15.831128 -40.92657425 17.28073127 -58.62890625 34.23046875 C-70.50900577 46.97600598 -73.49463502 64.50511877 -72.97265625 81.3515625 C-72.01154988 98.5656641 -66.17817802 115.94446841 -53.62890625 128.23046875 C-44.58714855 135.21007119 -36.15576666 138.80673818 -24.75390625 138.66796875 C-23.86985107 138.65894531 -22.9857959 138.64992187 -22.07495117 138.640625 C-11.90098412 138.3701956 -5.09888363 135.62971403 2.33203125 128.56640625 C7.97185795 122.10545535 10.97248818 114.35907653 13.37109375 106.23046875 C14.03109375 106.23046875 14.69109375 106.23046875 15.37109375 106.23046875 C16.193743 116.71924663 12.50074591 128.68661303 5.68359375 136.79296875 C-1.61477163 144.89433276 -11.79914232 148.97065249 -22.578125 149.6171875 C-40.01960067 150.19088889 -55.04848155 146.59542862 -68.75390625 135.23046875 C-78.0213926 126.44919393 -83.81468936 115.31686911 -87.62890625 103.23046875 C-87.97888672 102.13412109 -87.97888672 102.13412109 -88.3359375 101.015625 C-93.74727053 80.73285873 -90.1283433 57.87736995 -79.75390625 39.79296875 C-78.74407026 38.25081612 -77.70181574 36.72942462 -76.62890625 35.23046875 C-76.04496094 34.41449219 -75.46101563 33.59851563 -74.859375 32.7578125 C-60.4948022 13.82934284 -41.72300203 3.8885966 -18.50527954 0.65582275 C-12.3312296 -0.02165505 -6.20519129 -0.03533683 0 0 Z " fill="#000000" transform="translate(151.62890625,37.76953125)"/>
<path d="M0 0 C1.3609623 2.7219246 0.70366248 4.1831957 0.0625 7.125 C-0.13214844 8.03507812 -0.32679687 8.94515625 -0.52734375 9.8828125 C-0.68332031 10.58148438 -0.83929688 11.28015625 -1 12 C0.98 11.67 2.96 11.34 5 11 C5.33 11.99 5.66 12.98 6 14 C5.14453125 15.69140625 5.14453125 15.69140625 3.8125 17.5625 C-6.08582568 32.62995132 -7.13263822 51.66580419 -3.92138672 69.04077148 C-0.68892504 84.21637992 6.2401045 99.14640906 19.5 107.9375 C27.18400964 112.6474276 33.8881689 114.54687666 42.875 114.4375 C43.75905518 114.42847656 44.64311035 114.41945313 45.55395508 114.41015625 C55.72792213 114.13972685 62.53002262 111.39924528 69.9609375 104.3359375 C75.6007642 97.8749866 78.60139443 90.12860778 81 82 C81.66 82 82.32 82 83 82 C83.82264925 92.48877788 80.12965216 104.45614428 73.3125 112.5625 C66.01413462 120.66386401 55.82976393 124.74018374 45.05078125 125.38671875 C27.60930558 125.96042014 12.5804247 122.36495987 -1.125 111 C-10.39248635 102.21872518 -16.18578311 91.08640036 -20 79 C-20.34998047 77.90365234 -20.34998047 77.90365234 -20.70703125 76.78515625 C-26.11836428 56.50238998 -22.49943705 33.6469012 -12.125 15.5625 C-8.59665214 10.1155545 -4.5983924 4.5983924 0 0 Z " fill="#000000" transform="translate(84,62)"/>
<path d="M0 0 C-1 3 -1 3 -4.25 5.125 C-10.93427955 9.72729084 -13.63171215 17.34289615 -15.49609375 24.9921875 C-17.29280969 35.71677099 -15.65626275 45.59630424 -13 56 C-13.66 55.67 -14.32 55.34 -15 55 C-15 54.34 -15 53.68 -15 53 C-15.99 52.67 -16.98 52.34 -18 52 C-18.049377 47.47934572 -18.08570823 42.95884783 -18.10986328 38.43798828 C-18.11993118 36.89954902 -18.13358646 35.36112893 -18.15087891 33.82275391 C-18.17509317 31.61355867 -18.18647491 29.40461605 -18.1953125 27.1953125 C-18.20563507 26.50567413 -18.21595764 25.81603577 -18.22659302 25.10549927 C-18.22699478 23.40199094 -18.12191026 21.69914057 -18 20 C-17.34 19.34 -16.68 18.68 -16 18 C-16 17.01 -16 16.02 -16 15 C-17.98 15.99 -17.98 15.99 -20 17 C-20 17.99 -20 18.98 -20 20 C-20.66 20 -21.32 20 -22 20 C-19.1890087 11.00482784 -12.91994617 5.57772889 -5 1 C-3 0 -3 0 0 0 Z " fill="#000000" transform="translate(55,243)"/>
<path d="M0 0 C0.66 0 1.32 0 2 0 C2.72283946 9.21620316 -0.52766532 17.56942166 -4 26 C-4.2165625 25.0409375 -4.2165625 25.0409375 -4.4375 24.0625 C-4.81007181 22.02454854 -4.81007181 22.02454854 -6 21 C-7.32 21.99 -8.64 22.98 -10 24 C-10.66 23.67 -11.32 23.34 -12 23 C-11.61328125 22.52691406 -11.2265625 22.05382812 -10.828125 21.56640625 C-5.59680166 14.92366152 -2.48197191 8.0664087 0 0 Z " fill="#000000" transform="translate(165,144)"/>
<path d="M0 0 C18.48 0 36.96 0 56 0 C55.34 1.32 54.68 2.64 54 4 C51.375 4.75 51.375 4.75 49 5 C49.33 4.34 49.66 3.68 50 3 C33.5 2.34 17 1.68 0 1 C0 0.67 0 0.34 0 0 Z " fill="#000000" transform="translate(202,39)"/>
<path d="M0 0 C1 2 1 2 0.375 5.5 C-1 9 -1 9 -3.4375 10.125 C-4.283125 10.41375 -5.12875 10.7025 -6 11 C-7.78969026 13.42672567 -7.78969026 13.42672567 -9 16 C-9.33 16.66 -9.66 17.32 -10 18 C-10.66 18 -11.32 18 -12 18 C-10.67733174 13.12130558 -8.70477643 10.02117427 -5.4375 6.1875 C-4.63183594 5.23230469 -3.82617188 4.27710937 -2.99609375 3.29296875 C-1 1 -1 1 0 0 Z " fill="#000000" transform="translate(84,62)"/>
<path d="M0 0 C0.66 0 1.32 0 2 0 C2.20674944 5.78898419 1.59162079 10.42932723 0 16 C-0.33 16 -0.66 16 -1 16 C-1.144375 15.21625 -1.28875 14.4325 -1.4375 13.625 C-1.87798925 11.03578982 -1.87798925 11.03578982 -3 9 C-2.44140625 6.8359375 -2.44140625 6.8359375 -1.5625 4.375 C-1.27503906 3.55773437 -0.98757812 2.74046875 -0.69140625 1.8984375 C-0.46324219 1.27195313 -0.23507813 0.64546875 0 0 Z " fill="#000000" transform="translate(165,144)"/>
<path d="M0 0 C3.63 0 7.26 0 11 0 C11.33 0.66 11.66 1.32 12 2 C9.61042731 5.24299151 7.7952131 7.50902342 4 9 C5.20381448 6.50638429 6.45428722 4.31856917 8 2 C5.03 2 2.06 2 -1 2 C-0.67 1.34 -0.34 0.68 0 0 Z " fill="#000000" transform="translate(198,49)"/>
<path d="M0 0 C1.99097846 2.98646769 2.94124926 5.59687262 4 9 C4.33 8.34 4.66 7.68 5 7 C5.66 7 6.32 7 7 7 C7 8.65 7 10.3 7 12 C6.34 12 5.68 12 5 12 C5 13.98 5 15.96 5 18 C3.03723564 15.05585347 2.28266038 12.94101364 1.375 9.5625 C0.98441406 8.14130859 0.98441406 8.14130859 0.5859375 6.69140625 C0 4 0 4 0 0 Z " fill="#000000" transform="translate(29,299)"/>
<path d="M0 0 C-1.14668209 3.44004627 -1.87943304 4.26635169 -5 6 C-7.75 5.6875 -7.75 5.6875 -10 5 C-6.99385784 1.69324363 -4.54252119 0 0 0 Z " fill="#000000" transform="translate(55,243)"/>
<path d="M0 0 C-0.33 0.66 -0.66 1.32 -1 2 C-3.14453125 2.66796875 -3.14453125 2.66796875 -5.8125 3.1875 C-6.68519531 3.36667969 -7.55789062 3.54585937 -8.45703125 3.73046875 C-10.97357778 3.99719949 -12.61667355 3.78333107 -15 3 C-13.44033782 2.491217 -11.87710759 1.99336531 -10.3125 1.5 C-9.44238281 1.2215625 -8.57226562 0.943125 -7.67578125 0.65625 C-5.00608323 0.00149195 -2.73603316 -0.11831495 0 0 Z " fill="#000000" transform="translate(128,40)"/>
<path d="M0 0 C4.29 0 8.58 0 13 0 C12.67 0.99 12.34 1.98 12 3 C10.35 3.33 8.7 3.66 7 4 C7.33 3.34 7.66 2.68 8 2 C5.36 1.67 2.72 1.34 0 1 C0 0.67 0 0.34 0 0 Z " fill="#000000" transform="translate(244,40)"/>
<path d="M0 0 C0.66 0 1.32 0 2 0 C0.515 6.435 0.515 6.435 -1 13 C-1.33 13 -1.66 13 -2 13 C-3.34465195 5.78777589 -3.34465195 5.78777589 -1.6875 2 C-1.130625 1.34 -0.57375 0.68 0 0 Z " fill="#000000" transform="translate(40,258)"/>
<path d="M0 0 C2.6855594 2.6855594 3.06049974 5.37621328 4 9 C2.68 9 1.36 9 0 9 C-1.125 3.375 -1.125 3.375 0 0 Z " fill="#000000" transform="translate(42,300)"/>
<path d="M0 0 C0.66 0 1.32 0 2 0 C2.66 2.97 3.32 5.94 4 9 C3.34 8.67 2.68 8.34 2 8 C2 7.34 2 6.68 2 6 C1.01 5.67 0.02 5.34 -1 5 C-0.67 3.35 -0.34 1.7 0 0 Z " fill="#000000" transform="translate(38,290)"/>
<path d="M0 0 C1.67542976 0.28604898 3.34385343 0.61781233 5 1 C4.67 1.99 4.34 2.98 4 4 C4 3.34 4 2.68 4 2 C3.34 2 2.68 2 2 2 C1.67 2.99 1.34 3.98 1 5 C0.34 3.68 -0.32 2.36 -1 1 C-0.67 0.67 -0.34 0.34 0 0 Z " fill="#000000" transform="translate(32,304)"/>
<path d="M0 0 C0.33 0 0.66 0 1 0 C1 1.98 1 3.96 1 6 C1.66 6.33 2.32 6.66 3 7 C0.525 8.485 0.525 8.485 -2 10 C-1.34 6.7 -0.68 3.4 0 0 Z " fill="#000000" transform="translate(188,287)"/>
</svg>
